<?xml version="1.0" encoding="UTF-8" standalone="no"?>
<svg
   xmlns:dc="http://purl.org/dc/elements/1.1/"
   xmlns:cc="http://creativecommons.org/ns#"
   xmlns:rdf="http://www.w3.org/1999/02/22-rdf-syntax-ns#"
   xmlns:svg="http://www.w3.org/2000/svg"
   xmlns="http://www.w3.org/2000/svg"
   xmlns:sodipodi="http://sodipodi.sourceforge.net/DTD/sodipodi-0.dtd"
   xmlns:inkscape="http://www.inkscape.org/namespaces/inkscape"
   width="107.1078mm"
   height="16.36009mm"
   viewBox="0 0 107.1078 16.36009"
   version="1.1"
   id="svg2180"
   inkscape:version="1.0.1 (3bc2e813f5, 2020-09-07)"
   sodipodi:docname="drawing.svg">
  <defs
     id="defs2174" />
  <sodipodi:namedview
     id="base"
     pagecolor="#ffffff"
     bordercolor="#666666"
     borderopacity="1.0"
     inkscape:pageopacity="0.0"
     inkscape:pageshadow="2"
     inkscape:zoom="0.35"
     inkscape:cx="400"
     inkscape:cy="560"
     inkscape:document-units="px"
     inkscape:current-layer="layer1"
     inkscape:document-rotation="0"
     showgrid="false"
     fit-margin-top="0"
     fit-margin-left="0"
     fit-margin-right="0"
     fit-margin-bottom="0"
     inkscape:window-width="1366"
     inkscape:window-height="705"
     inkscape:window-x="-8"
     inkscape:window-y="-8"
     inkscape:window-maximized="1" />
  <metadata
     id="metadata2177">
    <rdf:RDF>
      <cc:Work
         rdf:about="">
        <dc:format>image/svg+xml</dc:format>
        <dc:type
           rdf:resource="http://purl.org/dc/dcmitype/StillImage" />
        <dc:title></dc:title>
      </cc:Work>
    </rdf:RDF>
  </metadata>
  <g
     inkscape:label="Layer 1"
     inkscape:groupmode="layer"
     id="layer1">
    <g
       aria-label="MovieCrunchers"
       id="text835-1-4-8"
       style="font-style:normal;font-variant:normal;font-weight:bold;font-stretch:normal;font-size:14.1111px;line-height:0;font-family:'Franklin Gothic Medium';-inkscape-font-specification:'Franklin Gothic Medium, Bold';font-variant-ligatures:normal;font-variant-caps:normal;font-variant-numeric:normal;font-feature-settings:normal;text-align:start;letter-spacing:-0.846667px;word-spacing:0px;writing-mode:lr-tb;text-anchor:start;fill:#ffffff;fill-opacity:1;stroke:none;stroke-width:0.264583"
       transform="translate(-53.885784,-185.62724)">
      <path
         d="m 62.363483,185.7926 h 1.841061 v 16.02936 h -1.918231 v -12.13777 l 0.187413,0.70555 -2.756079,8.80843 h -1.344966 l -2.745055,-8.58794 0.253559,-0.92604 v 12.13777 H 53.885784 V 185.7926 h 1.918231 l 3.241149,10.06521 z"
         style="font-style:normal;font-variant:normal;font-weight:normal;font-stretch:normal;font-size:22.5778px;line-height:6.35px;font-family:Bahnschrift;-inkscape-font-specification:'Bahnschrift, @wght=400,wdth=75.0';font-variant-ligatures:normal;font-variant-caps:normal;font-variant-numeric:normal;font-variant-east-asian:normal;font-variation-settings:'wdth' 75, 'wght' 400;fill:#ffffff;stroke-width:0.264583"
         id="path1033" />
      <path
         d="m 68.759792,201.98733 q -1.036286,0 -1.78594,-0.38586 -0.738629,-0.39687 -1.135504,-1.1355 -0.385851,-0.74965 -0.385851,-1.79696 v -5.22553 q 0,-1.03629 0.385851,-1.76389 0.396875,-0.73863 1.135504,-1.11346 0.749654,-0.38585 1.78594,-0.38585 1.036285,0 1.76389,0.38585 0.73863,0.37483 1.113456,1.11346 0.385851,0.7276 0.385851,1.76389 v 5.2586 q 0,1.03628 -0.385851,1.77491 -0.374826,0.73863 -1.113456,1.12448 -0.727605,0.38586 -1.76389,0.38586 z m -0.02205,-2.0395 q 0.56224,0 0.870921,-0.34176 0.319705,-0.35278 0.319705,-0.99219 v -5.08221 q 0,-0.61736 -0.319705,-0.95911 -0.308681,-0.35278 -0.870921,-0.35278 -0.551216,0 -0.870921,0.35278 -0.319705,0.34175 -0.319705,0.95911 v 5.08221 q 0,0.62839 0.308681,0.98117 0.319705,0.35278 0.881945,0.35278 z"
         style="font-style:normal;font-variant:normal;font-weight:normal;font-stretch:normal;font-size:22.5778px;line-height:6.35px;font-family:Bahnschrift;-inkscape-font-specification:'Bahnschrift, @wght=400,wdth=75.0';font-variant-ligatures:normal;font-variant-caps:normal;font-variant-numeric:normal;font-variant-east-asian:normal;font-variation-settings:'wdth' 75, 'wght' 400;fill:#ffffff;stroke-width:0.264583"
         id="path1035" />
      <path
         d="m 77.956278,190.37872 h 2.083596 l -3.097833,11.44324 h -1.653648 l -3.119881,-11.44324 h 2.09462 l 1.852085,8.42258 z"
         style="font-style:normal;font-variant:normal;font-weight:normal;font-stretch:normal;font-size:22.5778px;line-height:6.35px;font-family:Bahnschrift;-inkscape-font-specification:'Bahnschrift, @wght=400,wdth=75.0';font-variant-ligatures:normal;font-variant-caps:normal;font-variant-numeric:normal;font-variant-east-asian:normal;font-variation-settings:'wdth' 75, 'wght' 400;fill:#ffffff;stroke-width:0.264583"
         id="path1037" />
      <path
         d="m 80.824804,185.93592 h 2.094621 v 2.09462 h -2.094621 z m 0,4.4428 h 2.094621 v 11.44324 h -2.094621 z"
         style="font-style:normal;font-variant:normal;font-weight:normal;font-stretch:normal;font-size:22.5778px;line-height:6.35px;font-family:Bahnschrift;-inkscape-font-specification:'Bahnschrift, @wght=400,wdth=75.0';font-variant-ligatures:normal;font-variant-caps:normal;font-variant-numeric:normal;font-variant-east-asian:normal;font-variation-settings:'wdth' 75, 'wght' 400;fill:#ffffff;stroke-width:0.264583"
         id="path1039" />
      <path
         d="m 87.739256,201.98733 q -1.102431,0 -1.885158,-0.44098 -0.771702,-0.45199 -1.190626,-1.30087 -0.4079,-0.84887 -0.4079,-2.05052 v -4.00183 q 0,-1.26779 0.396876,-2.17179 0.407899,-0.90399 1.168577,-1.36701 0.760678,-0.47405 1.830037,-0.47405 1.080383,0 1.852085,0.44097 0.771702,0.42995 1.168578,1.2678 0.407899,0.82682 0.407899,2.00643 v 3.02066 h -5.357817 v -1.73082 h 3.351392 v -1.24575 q 0,-0.89297 -0.374827,-1.37804 -0.363802,-0.48507 -1.04731,-0.48507 -0.661459,0 -1.025262,0.51815 -0.363802,0.51814 -0.363802,1.47726 v 4.17821 q 0,0.83785 0.385851,1.3119 0.385851,0.46302 1.091407,0.46302 0.650435,0 1.003213,-0.34176 0.363803,-0.35278 0.363803,-0.99219 v -0.0772 h 2.006425 v 0.0772 q 0,1.57648 -0.881945,2.43638 -0.881945,0.8599 -2.491496,0.8599 z"
         style="font-style:normal;font-variant:normal;font-weight:normal;font-stretch:normal;font-size:22.5778px;line-height:6.35px;font-family:Bahnschrift;-inkscape-font-specification:'Bahnschrift, @wght=400,wdth=75.0';font-variant-ligatures:normal;font-variant-caps:normal;font-variant-numeric:normal;font-variant-east-asian:normal;font-variation-settings:'wdth' 75, 'wght' 400;fill:#ffffff;stroke-width:0.264583"
         id="path1041" />
      <path
         d="m 96.086871,201.98733 c -0.779051,0 -1.44786,-0.16169 -2.006425,-0.48507 -0.558565,-0.32338 -0.984839,-0.79008 -1.278821,-1.40009 -0.293982,-0.61737 -0.440973,-1.356 -0.440973,-2.21589 v -8.14697 c 0,-0.86725 0.146991,-1.60588 0.440973,-2.21589 0.293982,-0.61736 0.716581,-1.08773 1.267796,-1.41111 0.558566,-0.32338 1.231049,-0.48507 2.01745,-0.48507 0.786401,0 1.458885,0.16169 2.01745,0.48507 0.558565,0.32338 0.981164,0.79375 1.267797,1.41111 0.293981,0.61001 0.440972,1.34497 0.440972,2.20486 v 0.68351 l -1.058334,1.98438 -1.058334,-1.98438 v -0.68351 c 0,-0.43362 -0.06247,-0.80477 -0.187414,-1.11345 -0.124942,-0.30868 -0.308681,-0.54387 -0.551216,-0.70556 -0.242535,-0.16169 -0.532842,-0.24253 -0.870921,-0.24253 -0.338079,0 -0.628386,0.0808 -0.870921,0.24253 -0.235185,0.16169 -0.418924,0.39688 -0.551215,0.70556 -0.124943,0.30868 -0.187414,0.68351 -0.187414,1.12448 v 8.14697 c 0,0.43362 0.06247,0.80477 0.187414,1.11346 0.132291,0.30868 0.31603,0.54386 0.551215,0.70555 0.242535,0.16169 0.532842,0.24254 0.870921,0.24254 0.338079,0 0.628386,-0.0808 0.870921,-0.24254 0.242535,-0.16169 0.426274,-0.39687 0.551216,-0.70555 0.124943,-0.30869 0.187414,-0.67984 0.187414,-1.11346 v -0.68351 l 0.96384,-1.70089 1.152828,1.70089 v 0.68351 c 0,0.85989 -0.146991,1.59852 -0.440972,2.21589 -0.286633,0.61001 -0.709232,1.07671 -1.267797,1.40009 -0.558565,0.32338 -1.231049,0.48507 -2.01745,0.48507 z"
         style="font-style:normal;font-variant:normal;font-weight:normal;font-stretch:normal;font-size:22.5778px;line-height:6.35px;font-family:Bahnschrift;-inkscape-font-specification:'Bahnschrift, @wght=400,wdth=75.0';font-variant-ligatures:normal;font-variant-caps:normal;font-variant-numeric:normal;font-variant-east-asian:normal;font-variation-settings:'wdth' 75, 'wght' 400;fill:#ffffff;stroke-width:0.264583"
         id="path1043"
         sodipodi:nodetypes="sscssccsscscccssssccssccsssscccscss" />
      <path
         d="m 101.06104,190.37872 h 2.09462 v 11.44324 h -2.09462 z m 5.23655,1.89618 q -0.0772,0 -0.17638,0 -0.0882,0 -0.22049,0 -1.27882,0 -2.00643,0.62839 -0.71658,0.61736 -0.73863,1.70877 l -0.23151,-2.23794 q 0.56224,-1.03628 1.43317,-1.60955 0.88194,-0.58429 1.94027,-0.58429 0,0 0,0 0,0 0,0 z"
         style="font-style:normal;font-variant:normal;font-weight:normal;font-stretch:normal;font-size:22.5778px;line-height:6.35px;font-family:Bahnschrift;-inkscape-font-specification:'Bahnschrift, @wght=400,wdth=75.0';font-variant-ligatures:normal;font-variant-caps:normal;font-variant-numeric:normal;font-variant-east-asian:normal;font-variation-settings:'wdth' 75, 'wght' 400;fill:#ffffff;stroke-width:0.264583"
         id="path1045" />
      <path
         d="m 111.94425,190.37872 h 2.09462 v 11.44324 h -2.09462 z m -2.57969,8.31233 q 0,0.61737 0.33073,0.93707 0.33073,0.31971 0.97014,0.31971 0.63941,0 0.95911,-0.31971 0.31971,-0.33073 0.31971,-0.98116 l 0.15434,1.41111 q -0.30868,0.97014 -0.87092,1.45521 -0.56224,0.47405 -1.40009,0.47405 -1.2678,0 -1.91823,-0.8158 -0.63941,-0.8158 -0.63941,-2.39228 v -8.40053 h 2.09462 z"
         style="font-style:normal;font-variant:normal;font-weight:normal;font-stretch:normal;font-size:22.5778px;line-height:6.35px;font-family:Bahnschrift;-inkscape-font-specification:'Bahnschrift, @wght=400,wdth=75.0';font-variant-ligatures:normal;font-variant-caps:normal;font-variant-numeric:normal;font-variant-east-asian:normal;font-variation-settings:'wdth' 75, 'wght' 400;fill:#ffffff;stroke-width:0.264583"
         id="path1047" />
      <path
         d="m 115.61755,190.37872 h 2.09462 v 11.44324 h -2.09462 z m 4.8948,3.50573 q 0,-0.88194 -0.35278,-1.31189 -0.34175,-0.44097 -1.04731,-0.44097 -0.70556,0 -1.05833,0.45199 -0.34176,0.452 -0.34176,1.36702 l -0.23151,-1.64262 q 0.38585,-1.06936 1.05834,-1.59853 0.6835,-0.52917 1.56545,-0.52917 1.21267,0 1.85208,0.79375 0.65044,0.79375 0.65044,2.29306 v 8.55487 h -2.09462 z"
         style="font-style:normal;font-variant:normal;font-weight:normal;font-stretch:normal;font-size:22.5778px;line-height:6.35px;font-family:Bahnschrift;-inkscape-font-specification:'Bahnschrift, @wght=400,wdth=75.0';font-variant-ligatures:normal;font-variant-caps:normal;font-variant-numeric:normal;font-variant-east-asian:normal;font-variation-settings:'wdth' 75, 'wght' 400;fill:#ffffff;stroke-width:0.264583"
         id="path1049" />
      <path
         d="m 127.4268,201.98733 c -0.73495,0 -1.35966,-0.13229 -1.87413,-0.39688 -0.51447,-0.26459 -0.90767,-0.65044 -1.1796,-1.15755 -0.27193,-0.51447 -0.4079,-1.13184 -0.4079,-1.85209 v -4.82865 c 0,-0.757 0.13597,-1.40008 0.4079,-1.92925 0.27193,-0.53652 0.66513,-0.94442 1.1796,-1.2237 0.52182,-0.27929 1.14653,-0.41893 1.87413,-0.41893 0.73496,0 1.36335,0.13964 1.88516,0.41893 0.52182,0.27928 0.9187,0.69085 1.19063,1.23472 0.27193,0.53651 0.4079,1.18327 0.4079,1.94028 v 0.37483 l -1.03629,1.5119 -1.03628,-1.5119 v -0.37483 c 0,-0.52182 -0.12127,-0.92605 -0.36381,-1.21268 -0.24253,-0.28663 -0.58061,-0.42994 -1.01423,-0.42994 -0.44097,0 -0.7864,0.14331 -1.03629,0.42994 -0.24253,0.27929 -0.3638,0.67616 -0.3638,1.19063 v 4.82865 c 0,0.46302 0.12127,0.82315 0.3638,1.08038 0.24989,0.24989 0.59532,0.37483 1.03629,0.37483 0.43362,0 0.7717,-0.13229 1.01423,-0.39687 0.24989,-0.26459 0.37483,-0.63207 0.37483,-1.10244 v -0.3638 l 1.0418,-1.03943 1.0418,1.03943 v 0.3638 c 0,0.72761 -0.13964,1.34864 -0.41893,1.86311 -0.27193,0.51447 -0.66881,0.90768 -1.19062,1.17961 -0.52182,0.27193 -1.15388,0.4079 -1.89619,0.4079 z"
         style="font-style:normal;font-variant:normal;font-weight:normal;font-stretch:normal;font-size:22.5778px;line-height:6.35px;font-family:Bahnschrift;-inkscape-font-specification:'Bahnschrift, @wght=400,wdth=75.0';font-variant-ligatures:normal;font-variant-caps:normal;font-variant-numeric:normal;font-variant-east-asian:normal;font-variation-settings:'wdth' 75, 'wght' 400;fill:#ffffff;stroke-width:0.264583"
         id="path1051"
         sodipodi:nodetypes="sscssccsscscccssscsscscscccscss" />
      <path
         d="m 131.84976,185.7926 h 2.09462 v 16.02936 h -2.09462 z m 4.89479,8.08083 q 0,-0.87092 -0.35278,-1.30087 -0.34175,-0.44097 -1.04731,-0.44097 -0.70555,0 -1.05833,0.45199 -0.34175,0.44098 -0.34175,1.34497 l -0.23151,-1.62057 q 0.38585,-1.06936 1.05833,-1.59853 0.68351,-0.52917 1.56545,-0.52917 1.21268,0 1.85209,0.79375 0.65043,0.79375 0.65043,2.29306 v 8.55487 h -2.09462 z"
         style="font-style:normal;font-variant:normal;font-weight:normal;font-stretch:normal;font-size:22.5778px;line-height:6.35px;font-family:Bahnschrift;-inkscape-font-specification:'Bahnschrift, @wght=400,wdth=75.0';font-variant-ligatures:normal;font-variant-caps:normal;font-variant-numeric:normal;font-variant-east-asian:normal;font-variation-settings:'wdth' 75, 'wght' 400;fill:#ffffff;stroke-width:0.264583"
         id="path1053" />
      <path
         d="m 143.68105,201.98733 q -1.10243,0 -1.88515,-0.44098 -0.77171,-0.45199 -1.19063,-1.30087 -0.4079,-0.84887 -0.4079,-2.05052 v -4.00183 q 0,-1.26779 0.39688,-2.17179 0.40789,-0.90399 1.16857,-1.36701 0.76068,-0.47405 1.83004,-0.47405 1.08038,0 1.85208,0.44097 0.77171,0.42995 1.16858,1.2678 0.4079,0.82682 0.4079,2.00643 v 3.02066 h -5.35782 v -1.73082 h 3.3514 v -1.24575 q 0,-0.89297 -0.37483,-1.37804 -0.3638,-0.48507 -1.04731,-0.48507 -0.66146,0 -1.02526,0.51815 -0.3638,0.51814 -0.3638,1.47726 v 4.17821 q 0,0.83785 0.38585,1.3119 0.38585,0.46302 1.0914,0.46302 0.65044,0 1.00322,-0.34176 0.3638,-0.35278 0.3638,-0.99219 v -0.0772 h 2.00642 v 0.0772 q 0,1.57648 -0.88194,2.43638 -0.88195,0.8599 -2.4915,0.8599 z"
         style="font-style:normal;font-variant:normal;font-weight:normal;font-stretch:normal;font-size:22.5778px;line-height:6.35px;font-family:Bahnschrift;-inkscape-font-specification:'Bahnschrift, @wght=400,wdth=75.0';font-variant-ligatures:normal;font-variant-caps:normal;font-variant-numeric:normal;font-variant-east-asian:normal;font-variation-settings:'wdth' 75, 'wght' 400;fill:#ffffff;stroke-width:0.264583"
         id="path1055" />
      <path
         d="m 148.41269,190.37872 h 2.09462 v 11.44324 h -2.09462 z m 5.23655,1.89618 q -0.0772,0 -0.17639,0 -0.0882,0 -0.22048,0 -1.27882,0 -2.00643,0.62839 -0.71658,0.61736 -0.73863,1.70877 l -0.23151,-2.23794 q 0.56224,-1.03628 1.43316,-1.60955 0.88195,-0.58429 1.94028,-0.58429 0,0 0,0 0,0 0,0 z"
         style="font-style:normal;font-variant:normal;font-weight:normal;font-stretch:normal;font-size:22.5778px;line-height:6.35px;font-family:Bahnschrift;-inkscape-font-specification:'Bahnschrift, @wght=400,wdth=75.0';font-variant-ligatures:normal;font-variant-caps:normal;font-variant-numeric:normal;font-variant-east-asian:normal;font-variation-settings:'wdth' 75, 'wght' 400;fill:#ffffff;stroke-width:0.264583"
         id="path1057" />
      <path
         d="m 157.53201,201.98733 q -1.06936,0 -1.85208,-0.4079 -0.77171,-0.41893 -1.19063,-1.19063 -0.41892,-0.78273 -0.41892,-1.83004 v -0.0882 h 2.07257 v 0.0882 q 0,0.73863 0.3638,1.15756 0.3638,0.4079 1.02526,0.4079 0.65044,0 1.01424,-0.39688 0.37482,-0.39688 0.37482,-1.09141 0,-0.46302 -0.22048,-0.74965 -0.20946,-0.29766 -0.54019,-0.46302 -0.33073,-0.17639 -0.93707,-0.39688 -0.0441,-0.011 -0.0882,-0.022 -0.0331,-0.011 -0.0772,-0.0331 -0.0331,-0.011 -0.0662,-0.0221 -0.022,-0.011 -0.0551,-0.0221 -0.8158,-0.30868 -1.38907,-0.66146 -0.56224,-0.35277 -0.94809,-1.01423 -0.38585,-0.66146 -0.38585,-1.69775 0,-1.03628 0.38585,-1.79696 0.39688,-0.76068 1.12448,-1.16858 0.72761,-0.4079 1.7198,-0.4079 1.00321,0 1.73081,0.38585 0.72761,0.38585 1.11346,1.11346 0.38585,0.71658 0.38585,1.70877 v 0.0661 h -2.07257 v -0.0882 q 0,-0.62839 -0.30868,-0.97014 -0.29766,-0.35278 -0.84887,-0.35278 -0.55122,0 -0.8599,0.38585 -0.29766,0.38585 -0.29766,1.08039 0,0.47404 0.20947,0.78272 0.20946,0.29766 0.54019,0.47405 0.34175,0.16536 0.87092,0.34175 0.0221,0.011 0.0551,0.0221 0.0331,0 0.0551,0.011 0.011,0.011 0.0331,0.011 0.0221,0 0.0331,0.011 0.92604,0.29766 1.4993,0.61736 0.58429,0.30869 0.99219,0.99219 0.41893,0.68351 0.41893,1.86311 0,1.03629 -0.41893,1.79697 -0.41892,0.74965 -1.20165,1.15755 -0.7717,0.39688 -1.84106,0.39688 z"
         style="font-style:normal;font-variant:normal;font-weight:normal;font-stretch:normal;font-size:22.5778px;line-height:6.35px;font-family:Bahnschrift;-inkscape-font-specification:'Bahnschrift, @wght=400,wdth=75.0';font-variant-ligatures:normal;font-variant-caps:normal;font-variant-numeric:normal;font-variant-east-asian:normal;font-variation-settings:'wdth' 75, 'wght' 400;fill:#ffffff;stroke-width:0.264583"
         id="path1059" />
    </g>
  </g>
</svg>
